<svg width="56" height="21" viewBox="0 0 56 21" fill="none" xmlns="http://www.w3.org/2000/svg">
<path d="M28.0319 20.8509C28.0319 20.8509 26.9903 16.9575 28.0313 20.8425C27.4607 18.7129 28.7174 16.5398 30.8324 15.9731L54.0475 9.75264L55.0828 13.6163L28.0319 20.8509Z" fill="#282828"/>
<path d="M28.0106 20.8511C28.0106 20.8511 29.0522 16.9576 28.0112 20.8427C28.5818 18.713 27.3251 16.5399 25.2101 15.9732L1.99496 9.75276L0.959688 13.6165L28.0106 20.8511Z" fill="#282828"/>
<path d="M46.0239 1.609L30.449 13.1002C30.2555 12.9375 30.0514 12.7792 29.8351 12.6305L44.3325 0.334599C44.9232 0.737023 45.4843 1.16083 46.0239 1.609Z" fill="#282828"/>
<path d="M9.97611 1.609L25.551 13.1002C25.7445 12.9375 25.9486 12.7792 26.1649 12.6305L11.6675 0.334599C11.0768 0.737023 10.5157 1.16083 9.97611 1.609Z" fill="#282828"/>
<path d="M50.3397 5.34733C50.576 5.71345 50.7936 6.09184 50.9998 6.47482L31.0341 14.575C30.9552 14.4285 30.8552 14.2983 30.7727 14.158L50.3397 5.34733Z" fill="#282828"/>
<path d="M5.66025 5.34733C5.42401 5.71345 5.20642 6.09184 5.00016 6.47482L24.9659 14.575C25.0448 14.4285 25.1448 14.2983 25.2273 14.158L5.66025 5.34733Z" fill="#282828"/>
</svg>
