<svg width="48" height="48" viewBox="0 0 48 48" fill="none" xmlns="http://www.w3.org/2000/svg">
<path d="M15.9948 30.1019L2.82855 26.1047C2.26521 28.1418 1.96313 30.2928 1.96313 32.5178H15.6628C15.6628 31.6802 15.7798 30.8711 15.9948 30.1019ZM17.1405 27.5862L5.86566 19.4239C4.86145 20.9452 4.0287 22.6005 3.39733 24.3555L16.2071 29.4409C16.4438 28.7799 16.7622 28.1617 17.1405 27.5862ZM19.1299 25.4666L10.8214 14.0393C9.43073 15.1276 8.16798 16.3811 7.05764 17.7771L17.663 26.8768C18.0957 26.3498 18.5883 25.874 19.1299 25.4666ZM21.5084 24.2273L17.0235 10.6518C15.5485 11.1675 14.1415 11.837 12.8271 12.649L19.9055 24.9509C20.409 24.6546 20.9451 24.4096 21.5084 24.2273ZM22.5915 23.9566C23.0379 23.8825 23.4951 23.8369 23.9659 23.8369L23.9604 9.48657C22.6133 9.48657 21.2934 9.61193 20.0171 9.85979L22.5915 23.9566ZM27.0764 35.797C25.3565 35.797 23.9604 37.25 23.9604 39.0591C23.9604 37.2528 22.5643 35.797 20.8444 35.797H1.96313V39.0762H45.9631V35.797H27.0764ZM26.6846 24.327L30.7585 10.6062C29.6781 10.2387 28.5542 9.95951 27.4057 9.76578L25.3375 23.9651C25.8028 24.0478 26.2464 24.1674 26.6846 24.327ZM28.9461 25.5919L36.9144 13.9025C36.147 13.3128 35.3414 12.7743 34.5032 12.2957L28.0589 24.9737C28.3691 25.1617 28.6685 25.3697 28.9461 25.5919ZM30.7395 27.5178L41.7721 19.0022C41.3258 18.3555 40.8469 17.7373 40.3352 17.1418L30.2088 26.8198C30.3966 27.0421 30.5735 27.2785 30.7395 27.5178ZM31.8716 29.891L44.8963 25.4181C44.7195 24.8426 44.5181 24.2785 44.2949 23.723L31.6539 29.27C31.7355 29.4751 31.809 29.6831 31.8716 29.891ZM45.9604 32.5178C45.9604 32.1133 45.9523 31.7116 45.9305 31.3098L32.2444 32.0648C32.2499 32.2158 32.2662 32.3611 32.2662 32.5178H45.9604Z" fill="black"/>
</svg>
