<svg width="157" height="30" viewBox="0 0 157 30" fill="none" xmlns="http://www.w3.org/2000/svg">
<path d="M14.5881 20.2018L1.53097 16.4153C0.972301 18.345 0.672726 20.3826 0.672726 22.4904H14.2589C14.2589 21.697 14.3749 20.9305 14.5881 20.2018ZM15.7244 17.8187L4.54292 10.0864C3.54703 11.5276 2.72117 13.0957 2.09503 14.7582L14.7986 19.5757C15.0335 18.9495 15.3492 18.3639 15.7244 17.8187ZM17.6972 15.8107L9.45757 4.98553C8.07844 6.01651 6.82616 7.20401 5.72502 8.52646L16.2425 17.1467C16.6717 16.6474 17.1602 16.1967 17.6972 15.8107ZM20.0561 14.6367L15.6083 1.77657C14.1455 2.26507 12.7502 2.8993 11.4466 3.66848L18.4664 15.3222C18.9657 15.0415 19.4974 14.8094 20.0561 14.6367ZM21.1302 14.3803C21.5728 14.3102 22.0262 14.267 22.4931 14.267L22.4877 0.672726C21.1518 0.672726 19.8429 0.791476 18.5771 1.02628L21.1302 14.3803ZM25.578 25.5969C23.8723 25.5969 22.4877 26.9733 22.4877 28.6871C22.4877 26.976 21.1032 25.5969 19.3975 25.5969H0.672726V28.7033H44.3082V25.5969H25.578ZM25.1893 14.7312L29.2295 1.73339C28.1581 1.38523 27.0435 1.12074 25.9045 0.937219L23.8534 14.3884C24.3149 14.4667 24.7548 14.58 25.1893 14.7312ZM27.4321 15.9295L35.3344 4.85599C34.5733 4.29732 33.7745 3.78723 32.9432 3.33382L26.5523 15.3438C26.8599 15.522 27.1568 15.719 27.4321 15.9295ZM29.2107 17.7539L40.1519 9.68697C39.7093 9.07433 39.2343 8.48867 38.7269 7.92461L28.6844 17.0927C28.8706 17.3032 29.046 17.5272 29.2107 17.7539ZM30.3334 20.0021L43.2502 15.7648C43.0748 15.2197 42.8751 14.6853 42.6538 14.159L30.1175 19.4137C30.1984 19.608 30.2713 19.8051 30.3334 20.0021ZM44.3055 22.4904C44.3055 22.1072 44.2974 21.7267 44.2758 21.3461L30.7031 22.0613C30.7085 22.2044 30.7247 22.342 30.7247 22.4904H44.3055Z" fill="black"/>
<path d="M156.689 26.8621L151.049 28.6H150.852V25.1735L150.82 25.1407C150.175 26.2774 149.41 27.1299 148.524 27.6983C147.65 28.2557 146.579 28.5344 145.311 28.5344C144.491 28.5344 143.699 28.3541 142.934 27.9934C142.179 27.6327 141.507 27.119 140.917 26.4523C140.327 25.7855 139.851 24.933 139.491 23.8946C139.141 22.8563 138.966 21.7086 138.966 20.4517C138.966 18.8996 139.31 17.4951 139.999 16.2382C140.687 14.9703 141.677 13.9702 142.966 13.2379C144.256 12.4946 145.721 12.123 147.36 12.123C148.431 12.123 149.595 12.3143 150.852 12.6969L150.82 7.15534L148.065 6.07327V5.87653L154.033 4.0239H154.312V25.5505C154.738 25.8019 155.53 26.1572 156.689 26.6162V26.8621ZM150.82 23.911V16.1398C150.393 15.1998 149.825 14.3965 149.114 13.7297C148.415 13.063 147.765 12.7296 147.163 12.7296C146.169 12.7296 145.327 13.0849 144.639 13.7953C143.961 14.5058 143.475 15.3911 143.18 16.4513C142.895 17.5006 142.753 18.6646 142.753 19.9434C142.753 21.1567 142.923 22.277 143.261 23.3044C143.611 24.3318 144.158 25.1844 144.901 25.862C145.644 26.5288 146.519 26.8621 147.524 26.8621C148.333 26.8621 149.049 26.5998 149.672 26.0752C150.295 25.5396 150.677 24.8182 150.82 23.911Z" fill="black"/>
<path d="M138.277 28.4033H130.719V28.0262C132.064 27.9497 132.736 27.6054 132.736 26.9933V18.7958C132.736 17.517 132.495 16.5005 132.015 15.7463C131.545 14.9812 130.79 14.5987 129.752 14.5987C129.151 14.5987 128.61 14.7189 128.129 14.9594C127.659 15.1998 127.183 15.5824 126.703 16.107V27.0589C126.724 27.1572 126.746 27.2447 126.768 27.3212C126.801 27.3977 126.845 27.4687 126.899 27.5343C126.954 27.589 126.998 27.6382 127.03 27.6819C127.074 27.7256 127.14 27.7638 127.227 27.7966C127.315 27.8294 127.38 27.8568 127.424 27.8786C127.479 27.9005 127.566 27.9223 127.686 27.9442C127.806 27.9661 127.888 27.9824 127.932 27.9934C127.976 28.0043 128.069 28.0207 128.211 28.0426C128.364 28.0535 128.462 28.0644 128.506 28.0754V28.4033H121.325V28.0754C121.871 28.0207 122.325 27.8895 122.686 27.6819C123.057 27.4742 123.243 27.201 123.243 26.8621V15.7135C123.243 15.3966 123.128 15.1616 122.899 15.0085C122.331 14.6916 121.817 14.4347 121.358 14.238V14.0248L126.457 12.0902H126.67V15.7463L126.735 15.7791C127.118 15.1889 127.55 14.6424 128.031 14.1396C128.522 13.6259 129.145 13.1614 129.9 12.746C130.665 12.3307 131.435 12.123 132.211 12.123C133.49 12.123 134.479 12.5985 135.179 13.5494C135.878 14.4894 136.228 15.7354 136.228 17.2874V27.0917C136.228 27.5944 136.911 27.9333 138.277 28.1081V28.4033Z" fill="black"/>
<path d="M118.177 7.18812C118.177 7.75648 117.964 8.25379 117.538 8.68006C117.122 9.0954 116.631 9.30307 116.062 9.30307C115.494 9.30307 114.997 9.08994 114.57 8.66367C114.155 8.2374 113.947 7.74555 113.947 7.18812C113.947 6.58697 114.149 6.08965 114.554 5.69617C114.958 5.30269 115.461 5.10595 116.062 5.10595C116.663 5.10595 117.166 5.30269 117.571 5.69617C117.975 6.08965 118.177 6.58697 118.177 7.18812ZM120.095 28.4033H112.209V28.0754C113.729 27.9333 114.488 27.5289 114.488 26.8621V15.7463C114.488 15.3419 114.374 15.0632 114.144 14.9102C113.608 14.5713 113.062 14.3145 112.504 14.1396V13.9265L117.751 12.0902H117.948V26.9933C117.959 27.201 118.03 27.3758 118.161 27.5179C118.292 27.6491 118.489 27.7529 118.751 27.8294C119.013 27.9059 119.221 27.9606 119.374 27.9934C119.527 28.0152 119.767 28.0426 120.095 28.0754V28.4033Z" fill="black"/>
<path d="M111.226 20.1402C111.226 22.5011 110.472 24.4903 108.963 26.108C107.455 27.7256 105.548 28.5344 103.241 28.5344C100.837 28.5344 98.7873 27.8622 97.0932 26.5178H96.9292L95.8144 28.4361H95.5849V7.71277C95.3225 7.53789 94.6613 7.17174 93.6011 6.61431V6.41756L98.7983 4.0239H99.077L99.0114 15.9103L99.077 15.9431C99.4923 14.9594 100.241 14.0795 101.323 13.3035C102.405 12.5165 103.558 12.123 104.782 12.123C106.094 12.123 107.247 12.5056 108.242 13.2707C109.247 14.0358 109.996 15.0195 110.488 16.2218C110.98 17.4241 111.226 18.7302 111.226 20.1402ZM107.438 20.8124C107.438 19.9708 107.34 19.1838 107.143 18.4515C106.958 17.7083 106.673 17.047 106.291 16.4677C105.908 15.8775 105.405 15.413 104.782 15.0741C104.159 14.7353 103.444 14.5659 102.635 14.5659C102.066 14.5659 101.536 14.6588 101.044 14.8446C100.563 15.0304 100.186 15.2545 99.9131 15.5168C99.6399 15.7791 99.4267 16.036 99.2737 16.2874C99.1316 16.5278 99.0551 16.73 99.0442 16.894C99.0005 17.6154 98.9786 18.4624 98.9786 19.4352C98.9786 20.091 99.0005 20.9763 99.0442 22.0912C99.0661 22.7688 99.1644 23.441 99.3393 24.1078C99.5251 24.7745 99.7765 25.4084 100.093 26.0096C100.421 26.5998 100.859 27.0807 101.405 27.4524C101.952 27.813 102.564 27.9934 103.241 27.9934C104.509 27.9934 105.526 27.3267 106.291 25.9932C107.056 24.6488 107.438 22.9219 107.438 20.8124Z" fill="black"/>
<path d="M93.6174 23.0585C93.5191 23.6159 93.3114 24.1952 92.9944 24.7964C92.6774 25.3866 92.2621 25.9713 91.7484 26.5506C91.2347 27.1299 90.568 27.6054 89.7482 27.977C88.9394 28.3486 88.0595 28.5344 87.1086 28.5344C85.5565 28.5344 84.1794 28.1464 82.9771 27.3704C81.7748 26.5834 80.8621 25.5451 80.2391 24.2553C79.627 22.9547 79.321 21.5174 79.321 19.9434C79.321 18.9925 79.4904 18.0526 79.8292 17.1235C80.179 16.1945 80.6599 15.3583 81.272 14.6151C81.8841 13.8718 82.6546 13.2707 83.5837 12.8116C84.5237 12.3526 85.5402 12.123 86.6332 12.123C88.535 12.123 90.0925 12.593 91.3057 13.533C92.519 14.473 93.1912 15.8611 93.3223 17.6973H82.8131C82.8131 17.7957 82.8077 17.9815 82.7967 18.2548C82.7858 18.5171 82.7803 18.7193 82.7803 18.8614C82.7803 20.8506 83.305 22.512 84.3542 23.8455C85.4145 25.1789 86.8572 25.8456 88.6825 25.8456C89.7427 25.8456 90.71 25.5779 91.5844 25.0423C92.4698 24.4958 93.0491 23.8127 93.3223 22.9929L93.6174 23.0585ZM89.2891 15.6807C89.2891 14.8719 89.0323 14.1724 88.5186 13.5822C88.0158 12.992 87.3545 12.6969 86.5348 12.6969C85.8462 12.6969 85.2123 13.0029 84.633 13.615C84.0537 14.2161 83.6274 14.8501 83.3542 15.5168C83.0809 16.1835 82.9224 16.7519 82.8787 17.2219C83.5564 17.2219 84.3761 17.2109 85.338 17.1891C86.2998 17.1563 86.9993 17.1344 87.4365 17.1235C87.9939 17.1235 88.4639 17.047 88.8465 16.894C89.1416 16.5989 89.2891 16.1945 89.2891 15.6807Z" fill="black"/>
<path d="M71.0743 10.4671C71.0743 9.34133 70.8174 8.34124 70.3037 7.46684C69.8009 6.58151 69.0632 5.89292 68.0904 5.40107C67.1613 4.93108 66.0683 4.69608 64.8114 4.69608C64.2102 4.69608 63.6473 4.72887 63.1227 4.79445C63.0353 5.2863 62.9806 6.14977 62.9588 7.38486C62.915 8.77297 62.8932 11.8388 62.8932 16.5825C64.7185 16.5825 66.2159 16.3803 67.3854 15.9758C68.6424 15.5496 69.5714 14.8501 70.1726 13.8773C70.7737 12.8936 71.0743 11.7569 71.0743 10.4671ZM81.19 28.4033H73.5991C73.1619 27.9442 72.8668 27.6108 72.7138 27.4032C72.5935 27.2283 72.2383 26.7091 71.6481 25.8456C71.3858 25.4522 71.0251 24.9057 70.566 24.2061C70.107 23.4957 69.7572 22.9656 69.5168 22.6158C69.2763 22.2551 68.9375 21.7906 68.5003 21.2222C68.0631 20.643 67.5931 20.0582 67.0903 19.468C65.888 18.0799 64.8442 17.2984 63.9588 17.1235C63.8823 17.1126 63.5271 17.0798 62.8932 17.0251C62.8932 20.3806 62.9041 22.5502 62.926 23.5339C62.926 23.6542 62.926 23.8509 62.926 24.1242C62.9369 24.3865 62.9424 24.5723 62.9424 24.6816C62.9533 24.7909 62.9588 24.9494 62.9588 25.157C62.9697 25.3538 62.9861 25.5068 63.0079 25.6161C63.0298 25.7254 63.0517 25.8511 63.0735 25.9932C63.1063 26.1353 63.1446 26.261 63.1883 26.3703C63.232 26.4686 63.2867 26.567 63.3522 26.6654C63.5818 27.0151 63.9752 27.3321 64.5327 27.6163C65.0901 27.8895 65.7842 28.0426 66.6148 28.0754V28.4033H55.0728V28.0754C56.5155 27.8677 57.4774 27.4633 57.9583 26.8621C58.0676 26.731 58.155 26.5452 58.2206 26.3047C58.2971 26.0533 58.3518 25.7145 58.3845 25.2882C58.4173 24.8619 58.4392 24.545 58.4501 24.3373C58.4611 24.1187 58.472 23.7307 58.4829 23.1733C58.5376 21.0965 58.5649 18.7794 58.5649 16.2218V9.66377C58.5649 7.35754 58.3736 6.00222 57.9911 5.59781C57.685 5.26991 57.3298 5.04038 56.9254 4.90922C56.521 4.77806 55.969 4.66329 55.2695 4.56492V4.22062C55.3569 4.22062 56.7833 4.21516 59.5486 4.20423C62.3248 4.1933 64.1884 4.18784 65.1393 4.18784C66.9427 4.18784 68.3746 4.25342 69.4348 4.38458C70.5059 4.50481 71.4787 4.78899 72.3531 5.23712C74.5719 6.37384 75.6813 8.17729 75.6813 10.6475C75.6813 12.1995 75.1621 13.4947 74.1237 14.5331C73.0963 15.5605 71.7574 16.3311 70.107 16.8448V16.9268C70.7628 17.2874 71.4896 18.0252 72.2875 19.1401C72.6154 19.6101 73.222 20.4845 74.1074 21.7633C74.9927 23.0421 75.6321 23.9547 76.0256 24.5012C76.8344 25.6598 77.6268 26.5069 78.4028 27.0425C79.1898 27.578 80.1189 27.9223 81.19 28.0754V28.4033Z" fill="black"/>
</svg>
