<?xml version="1.0" encoding="UTF-8"?>
<svg id="Layer_1" xmlns="http://www.w3.org/2000/svg" version="1.1" viewBox="0 0 2000 2000">
  <!-- Generator: Adobe Illustrator 29.8.1, SVG Export Plug-In . SVG Version: 2.1.1 Build 2)  -->
  <path d="M853,436c-184.78,42.94-344.22,165.05-433.52,331.98-169.01,315.92-54.99,708.51,253.85,885.19,317.24,181.49,718.97,71.36,900.84-242.5,156.08-269.35,100.99-615.41-130.16-822.19-39.5-35.34-108.06-66.09-81.5-131.47,12.19-30,44.9-47.42,76.69-38.72,15.67,4.29,39.28,23.89,52.69,34.31,275.25,213.91,378.87,586.4,252.85,913.65-162.7,422.52-646.77,625.66-1064.43,441.93-373.37-164.25-563.41-589.13-433.78-979.14,90.49-272.27,323.78-477.7,606.33-531.17l.24-130.26c9.69-38.77,40.56-45.8,72.62-24.83,90.17,58.99,175.31,126.28,265.19,185.81,20.98,14.75,23.75,44.42,6.62,63.45l-283.86,199.14c-21.49,13.73-60.67-6.82-60.67-31.67v-123.5Z" fill="#3C3D47"/>
  <path d="M1088,887l-12.99,167.99,8.48-11.01c66.81-66.81,185.62-55.32,248.03,12,68.05,73.4,68.08,207.44,2,282.03-82.84,93.51-257.01,92.03-332.33-10.7-22.02-30.03-43.95-96.54,8.57-108.06,46.19-10.14,55.05,38.92,79.75,63.74,40.24,40.44,110.45,46.06,154.51,8.52,78.17-66.62,41.4-220.41-74.39-205.39-39.66,5.14-53.6,27.31-83.71,46.29-33.93,21.39-94.16,20.56-97.95-29.88,6.6-79.19,8.22-161.17,17.05-240.03,4.09-36.53,20.35-61.6,59.5-64.5l261.86.11c41.39,5.5,52.38,61.11,16.93,82.68-2.9,1.76-12.92,6.2-15.8,6.2h-239.5Z" fill="#3C3D47"/>
  <path d="M721.99,912l-81.68,59.81c-51.5,31.58-99.39-32.68-59.3-75.3,41.99-29.06,84.76-62.19,128.47-88.53,46.01-27.73,104.12-32.54,110.56,34.48l-.06,507.03c-6.78,69.21-102.28,58.63-98.03-9.94l.04-427.55Z" fill="#3C3D47"/>
</svg>